<svg width="93" height="36" viewBox="0 0 93 36" fill="none" xmlns="http://www.w3.org/2000/svg">
    <path d="M10.921 13.285a5.601 5.601 0 0 1 5.514-4.617h13.212c3.488 0 6.127 3.153 5.514 6.587l-2.716 15.212a1.4 1.4 0 0 1-1.379 1.154H14.337c-3.487 0-6.127-3.153-5.514-6.586l2.098-11.75z" fill="#E6E6E6"/>
    <path d="M6.002 8.367a5.601 5.601 0 0 1 5.515-4.617h13.211c3.488 0 6.128 3.153 5.515 6.586l-2.099 11.75a5.601 5.601 0 0 1-5.514 4.616H4.4a1.4 1.4 0 0 1-1.378-1.646l2.98-16.69z" fill="#FFC737"/>
    <path fill-rule="evenodd" clip-rule="evenodd" d="M30.294 8.706c.061.528.047 1.076-.052 1.63l-2.098 11.75a5.601 5.601 0 0 1-5.514 4.617H8.774c-.066-.54-.053-1.1.048-1.668l2.098-11.75a5.602 5.602 0 0 1 5.515-4.616h13.211c.22 0 .436.012.648.037z" fill="#D8A729"/>
    <path d="M80.763 18.2h.465l3.723-4.366h3.597l-4.958 5.748h-.727l-2.1 2.363v-3.744zm-2.826-8.184h3.122v15.273h-3.122V10.015zm3.744 10.263 2.078-2.215 5 7.225h-3.66l-3.418-5.01zM75.835 25.289h-3.122V10.015h3.122V25.29zM67.71 20.342c-.19.014-.345.025-.464.032l-.496.031c-.584.021-1.097.056-1.54.106-.556.042-.992.193-1.308.453-.31.254-.468.598-.475 1.034 0 .281.074.524.222.728.147.197.348.348.601.453.26.106.559.155.897.148.464.007.879-.08 1.244-.264.373-.19.661-.446.865-.77.204-.33.306-.696.306-1.097l-.021-3.702c0-.323-.07-.598-.211-.823a1.208 1.208 0 0 0-.612-.517c-.274-.12-.605-.179-.991-.179-.535 0-.967.113-1.298.338a1.428 1.428 0 0 0-.611.928h-2.975c.063-.675.299-1.28.707-1.814.408-.542.97-.967 1.687-1.277.725-.31 1.58-.464 2.564-.464.886 0 1.694.134 2.426.401a3.759 3.759 0 0 1 1.761 1.287c.443.583.668 1.315.675 2.194v7.721H67.7v-1.582h-.084a3.268 3.268 0 0 1-1.287 1.318c-.556.317-1.248.475-2.078.475-.738 0-1.392-.127-1.962-.38a3.103 3.103 0 0 1-1.35-1.16c-.33-.513-.496-1.136-.496-1.867 0-1.188.394-2.053 1.181-2.595.788-.548 1.815-.861 3.08-.939.345-.028.718-.049 1.119-.063l1.17-.063.697-.021.02 1.93zM48.457 10.015h12.51v2.616h-4.684V25.29H53.15V12.631h-4.693v-2.616zM43.77 13.834h3.123v11.455H43.77V13.834zM45.331 12.325a1.79 1.79 0 0 1-.864-.21 1.792 1.792 0 0 1-.612-.58 1.46 1.46 0 0 1 0-1.582c.155-.247.362-.44.622-.58.26-.142.545-.212.855-.212.302 0 .583.07.843.211.26.14.468.334.623.58a1.46 1.46 0 0 1 0 1.582c-.155.24-.363.433-.623.58-.26.141-.541.211-.843.211z" fill="#222"/>
</svg>
