<svg width="1920" height="1080" viewBox="0 0 1920 1080" fill="none" xmlns="http://www.w3.org/2000/svg">
    <path fill="#F4F4F4" d="M0 0h1920v1080H0z"/>
    <path d="M-63.498 111.421C-51.978 46.947 4.128 0 69.66 0h319.036c84.22 0 147.964 76.09 133.159 158.949L471.19 442.508c-11.52 64.473-67.626 111.42-133.158 111.42h-440.206c-21.055 0-36.991-19.022-33.29-39.737l71.966-402.77z" fill="#EAEAEA"/>
    <mask id="0382t1wqxa" fill="#fff">
        <path d="M1035.61 384.819C1056.37 261.093 1157.44 171 1275.5 171h574.75c151.72 0 266.56 146.019 239.89 305.027l-91.28 544.153c-20.75 123.73-121.83 213.82-239.88 213.82H965.937c-37.93 0-66.639-36.5-59.971-76.26l129.644-772.921z"/>
    </mask>
    <path d="m905.966 1157.74-216.969-36.39 216.969 36.39zm1092.894-137.56 216.97 36.4v-.01l-216.97-36.39zm91.28-544.153-216.97-36.394 216.97 36.394zm-1054.53-91.208-216.966-36.394 216.966 36.394zM1275.5 391h574.75V-49H1275.5v440zm597.67 48.633-91.28 544.155 433.94 72.782 91.28-544.15-433.94-72.787zM1758.98 1014H965.937v440h793.043v-440zm-636.05 180.14 129.65-772.928-433.936-72.787-129.647 772.925 433.933 72.79zM965.937 1014c114.153 0 170.103 102.03 156.993 180.14l-433.933-72.79C662.56 1278.96 775.924 1454 965.937 1454v-440zm815.953-30.212c-2.13 12.742-7.86 21.002-12.87 25.472-4.83 4.3-8.27 4.74-10.04 4.74v440c235.24 0 419.98-177.61 456.85-397.42l-433.94-72.792zM1850.25 391c2.07 0 7.21.366 13.91 8.884 6.96 8.844 11.85 22.79 9.01 39.749l433.94 72.787C2353.55 235.557 2154.06-49 1850.25-49v440zM1275.5-49c-235.24 0-419.984 177.608-456.856 397.425l433.936 72.787c2.14-12.742 7.86-21.005 12.87-25.469 4.83-4.307 8.28-4.743 10.05-4.743V-49z" fill="#000" fill-opacity=".04" mask="url(#0382t1wqxa)"/>
</svg>
