<svg width="16" height="16" viewBox="0 0 16 16" fill="none" xmlns="http://www.w3.org/2000/svg">
<path fill-rule="evenodd" clip-rule="evenodd" d="M8.23983 2.19648C8.26941 2.60963 7.95846 2.96854 7.5453 2.99812C6.83019 3.04931 6.11384 3.26275 5.44744 3.65525C3.10391 5.03556 2.2899 8.10581 3.65176 10.5122C3.75101 10.6876 3.85893 10.8543 3.97462 11.0123L3.97168 10.3824C3.96975 9.96816 4.30397 9.63081 4.71818 9.62888C5.13239 9.62695 5.46973 9.96117 5.47166 10.3754L5.48285 12.7762C5.48471 13.176 5.17266 13.507 4.77345 13.5286L2.18612 13.6689C1.77252 13.6913 1.41905 13.3742 1.39663 12.9606C1.37421 12.547 1.69133 12.1935 2.10493 12.1711L2.93874 12.1259C2.72148 11.8551 2.523 11.5632 2.34632 11.251C0.588195 8.14443 1.62573 4.16535 4.68618 2.36278C5.5553 1.85087 6.49609 1.56939 7.43819 1.50195C7.85135 1.47237 8.21026 1.78332 8.23983 2.19648ZM10.5276 2.69291C10.6839 2.53747 10.9007 2.45867 11.1203 2.47745L13.9185 2.71671C14.3312 2.75199 14.6372 3.11517 14.6019 3.52787C14.5666 3.94058 14.2034 4.24654 13.7907 4.21125L13.0523 4.14811C13.1896 4.33912 13.318 4.53953 13.4365 4.74906C15.1947 7.85561 14.1571 11.8347 11.0967 13.6373C10.2275 14.1492 9.28654 14.4307 8.34432 14.4981C7.93116 14.5277 7.57227 14.2167 7.54272 13.8035C7.51316 13.3904 7.82413 13.0315 8.23729 13.0019C8.9525 12.9508 9.66894 12.7373 10.3354 12.3448C12.679 10.9645 13.493 7.89423 12.1311 5.48786C12.0791 5.39599 12.0247 5.30648 11.9681 5.21936L12.0261 5.94539C12.0591 6.35829 11.7511 6.71974 11.3382 6.75271C10.9253 6.78569 10.5638 6.4777 10.5309 6.0648L10.3088 3.28443C10.2913 3.06469 10.3713 2.84835 10.5276 2.69291Z" fill="#0B9C38"/>
</svg>
