<svg width="20" height="20" viewBox="0 0 20 20" fill="none" xmlns="http://www.w3.org/2000/svg"  >
    <path fill-rule="evenodd" clip-rule="evenodd" d="m11.473 1.595 6.933 6.933-.531.53c-.78.78-1.999 1.08-2.944 1.208-.98.133-1.709.737-1.89 1.553-.191.861-.455 1.883-.793 2.816-.328.905-.762 1.833-1.342 2.414l-.53.53-3.448-3.447-4.053 4.054a.75.75 0 0 1-1.06-1.061l4.053-4.053L2.42 9.625l.53-.53c.58-.58 1.509-1.016 2.413-1.344.933-.338 1.955-.601 2.816-.792.816-.182 1.421-.91 1.554-1.89.128-.946.428-2.165 1.208-2.944l.53-.53zm.115 2.237c-.174.4-.295.898-.368 1.438-.197 1.459-1.155 2.807-2.715 3.153-.83.184-1.782.431-2.63.738-.49.178-.91.364-1.245.552l5.657 5.657c.188-.335.374-.757.551-1.246.307-.848.555-1.8.739-2.63.346-1.56 1.693-2.517 3.152-2.715.54-.073 1.038-.194 1.439-.368l-4.58-4.58z" fill="#222"/>
</svg>
