<svg width="12" height="12" viewBox="0 0 12 12" fill="none" xmlns="http://www.w3.org/2000/svg">
<path fill-rule="evenodd" clip-rule="evenodd" d="M6.0001 0.849609C6.35908 0.849609 6.6501 1.14062 6.6501 1.49961V5.34957H10.5001C10.8591 5.34957 11.1501 5.64059 11.1501 5.99957C11.1501 6.35856 10.8591 6.64957 10.5001 6.64957H6.6501V10.4996C6.6501 10.8586 6.35908 11.1496 6.0001 11.1496C5.64111 11.1496 5.3501 10.8586 5.3501 10.4996V6.64957H1.5001C1.14111 6.64957 0.850098 6.35856 0.850098 5.99957C0.850098 5.64059 1.14111 5.34957 1.5001 5.34957H5.3501V1.49961C5.3501 1.14062 5.64111 0.849609 6.0001 0.849609Z" fill="white"/>
</svg>
