<svg width="16" height="14" viewBox="0 0 16 14" fill="none" xmlns="http://www.w3.org/2000/svg">
<path fill-rule="evenodd" clip-rule="evenodd" d="M7.99937 0.210938L12.6121 4.82365C12.905 5.11654 12.905 5.59142 12.6121 5.88431C12.3192 6.1772 11.8443 6.1772 11.5514 5.88431L8.74937 3.08226V10.2528C8.74937 10.6671 8.41359 11.0028 7.99937 11.0028C7.58516 11.0028 7.24937 10.6671 7.24937 10.2528V3.08226L4.44732 5.88431C4.15443 6.1772 3.67956 6.1772 3.38666 5.88431C3.09377 5.59142 3.09377 5.11654 3.38666 4.82365L7.99937 0.210938ZM0.717773 13.0384C0.717773 12.6242 1.05356 12.2884 1.46777 12.2884H14.5314C14.9456 12.2884 15.2814 12.6242 15.2814 13.0384C15.2814 13.4526 14.9456 13.7884 14.5314 13.7884H1.46777C1.05356 13.7884 0.717773 13.4526 0.717773 13.0384Z" fill="#222222"/>
</svg>
