<svg width="16" height="16" viewBox="0 0 16 16" fill="none" xmlns="http://www.w3.org/2000/svg">
    <path fill-rule="evenodd" clip-rule="evenodd" d="M5.333.583a.75.75 0 0 1 .75.75v2a.75.75 0 0 1-1.5 0v-2a.75.75 0 0 1 .75-.75zM10.667.583a.75.75 0 0 1 .75.75v2a.75.75 0 0 1-1.5 0v-2a.75.75 0 0 1 .75-.75zM1.583 6.06a.75.75 0 0 1 .75-.75h11.333a.75.75 0 1 1 0 1.5H2.333a.75.75 0 0 1-.75-.75z" fill="#222"/>
    <path fill-rule="evenodd" clip-rule="evenodd" d="M3.341 3.76c-.37.398-.591 1.021-.591 1.906v5.667c0 .885.221 1.508.591 1.906.36.389.969.677 1.992.677h5.334c1.023 0 1.631-.288 1.992-.677.37-.398.591-1.021.591-1.906V5.666c0-.885-.221-1.508-.591-1.906-.36-.388-.969-.677-1.992-.677H5.333c-1.023 0-1.631.289-1.992.677zM2.242 2.74c.723-.779 1.782-1.157 3.091-1.157h5.334c1.31 0 2.368.378 3.09 1.156.714.769.993 1.812.993 2.927v5.667c0 1.115-.279 2.159-.992 2.927-.723.778-1.782 1.156-3.091 1.156H5.333c-1.31 0-2.368-.378-3.09-1.156-.714-.768-.993-1.812-.993-2.927V5.666c0-1.115.279-2.158.992-2.927z" fill="#222"/>
</svg>
