<svg width="26" height="26" viewBox="0 0 26 26" fill="none" xmlns="http://www.w3.org/2000/svg">
<path d="M22.1875 13.4375C22.1875 18.27 18.27 22.1875 13.4375 22.1875C8.60501 22.1875 4.6875 18.27 4.6875 13.4375C4.6875 8.60501 8.60501 4.6875 13.4375 4.6875C18.27 4.6875 22.1875 8.60501 22.1875 13.4375ZM13.4375 24.4875C19.5402 24.4875 24.4875 19.5402 24.4875 13.4375C24.4875 7.33475 19.5402 2.3875 13.4375 2.3875C7.33475 2.3875 2.3875 7.33475 2.3875 13.4375C2.3875 19.5402 7.33475 24.4875 13.4375 24.4875Z" fill="#919190" stroke="#919190" stroke-width="0.1"/>
<path fill-rule="evenodd" clip-rule="evenodd" d="M18.7198 9.84823C18.9587 10.0123 19.0086 10.3247 18.8314 10.5459L13.4084 17.5484C13.3093 17.6721 13.1541 17.7465 12.9878 17.7499C12.8215 17.7533 12.6629 17.6853 12.5581 17.5658L9.05807 13.5762C8.87054 13.3624 8.90563 13.0483 9.13643 12.8747C9.36723 12.701 9.70635 12.7335 9.89388 12.9472L12.9566 16.4384L17.9666 9.95158C18.1438 9.73039 18.481 9.68412 18.7198 9.84823Z" fill="#919190" stroke="#919190" stroke-width="1.3" stroke-linecap="round" stroke-linejoin="round"/>
</svg>
