<svg width="16" height="17" viewBox="0 0 16 17" fill="none" xmlns="http://www.w3.org/2000/svg">
    <path fill-rule="evenodd" clip-rule="evenodd" d="M13.523 2.96c-.881-.881-1.795-1.293-2.735-1.196-.9.092-1.633.635-2.212 1.214l-.845.844a.749.749 0 0 0-.105.105L2.35 9.203a2.695 2.695 0 0 0-.475.678 2.709 2.709 0 0 0-.263.773l-.336 2.386c-.09.628.078 1.24.511 1.674.433.433 1.047.6 1.674.51l2.373-.333.012-.002c.263-.042.54-.143.777-.261.23-.115.486-.278.682-.486L12.5 8.948a.749.749 0 0 0 .251-.251l.772-.772c.579-.579 1.123-1.314 1.212-2.217.093-.943-.324-1.86-1.212-2.748zm-1.64 4.484.58-.58c.493-.493.741-.919.78-1.304.033-.346-.086-.844-.78-1.54-.685-.683-1.178-.8-1.522-.764-.385.04-.811.289-1.305.782l-.574.574a4.85 4.85 0 0 0 2.82 2.832zM7.924 5.75 3.41 10.264a1.23 1.23 0 0 0-.197.294c-.07.137-.107.257-.119.326l-.333 2.368c-.034.234.036.35.087.4.05.051.167.121.4.088h.002l2.367-.334c.072-.012.197-.051.335-.12a1.036 1.036 0 0 0 .285-.196l4.51-4.51a6.349 6.349 0 0 1-2.823-2.83z" fill="#222"/>
</svg>
