<svg width="12" height="13" viewBox="0 0 12 13" fill="none" xmlns="http://www.w3.org/2000/svg">
<path fill-rule="evenodd" clip-rule="evenodd" d="M8.4927 1.9476C8.77959 1.68413 9.22042 1.68413 9.50731 1.9476L11.5073 3.78433C11.8124 4.06451 11.8326 4.53895 11.5524 4.84403C11.2722 5.14911 10.7978 5.1693 10.4927 4.88913L9.75 4.20706V10.5C9.75 10.9142 9.41422 11.25 9 11.25C8.58579 11.25 8.25 10.9142 8.25 10.5V4.20706L7.50731 4.88913C7.20223 5.1693 6.72778 5.14911 6.44761 4.84403C6.16743 4.53895 6.18762 4.06451 6.4927 3.78433L8.4927 1.9476Z" fill="#919190"/>
<path fill-rule="evenodd" clip-rule="evenodd" d="M3.56003 11.0524C3.27314 11.3159 2.83232 11.3159 2.54543 11.0524L0.545427 9.21567C0.240346 8.93549 0.220156 8.46105 0.500332 8.15597C0.780508 7.85089 1.25495 7.8307 1.56003 8.11087L2.30273 8.79294L2.30273 2.5C2.30273 2.08579 2.63852 1.75 3.05273 1.75C3.46694 1.75 3.80273 2.08579 3.80273 2.5L3.80273 8.79294L4.54543 8.11087C4.85051 7.8307 5.32495 7.85089 5.60513 8.15597C5.8853 8.46105 5.86511 8.93549 5.56003 9.21567L3.56003 11.0524Z" fill="#919190"/>
</svg>
