<svg width="16" height="17" viewBox="0 0 16 17" fill="none" xmlns="http://www.w3.org/2000/svg">
<path fill-rule="evenodd" clip-rule="evenodd" d="M6.96135 2.5C6.80204 2.5 6.67289 2.62915 6.67289 2.78846V3.07692H9.32674V2.78846C9.32674 2.62915 9.19759 2.5 9.03827 2.5H6.96135ZM10.8267 3.07692V2.78846C10.8267 1.80072 10.026 1 9.03827 1H6.96135C5.97361 1 5.17289 1.80072 5.17289 2.78846V3.07692H1.76904C1.35483 3.07692 1.01904 3.41271 1.01904 3.82692C1.01904 4.24114 1.35483 4.57692 1.76904 4.57692H2.0575L2.0575 13.25C2.0575 14.7688 3.28872 16 4.80751 16H11.1921C12.7109 16 13.9421 14.7688 13.9421 13.25V4.57692H14.2306C14.6448 4.57692 14.9806 4.24114 14.9806 3.82692C14.9806 3.41271 14.6448 3.07692 14.2306 3.07692H10.8267ZM3.5575 4.57692V13.25C3.5575 13.9404 4.11715 14.5 4.80751 14.5H11.1921C11.8825 14.5 12.4421 13.9404 12.4421 13.25V4.57692H3.5575ZM6.44212 6.75C6.85633 6.75 7.19212 7.08579 7.19212 7.5V11C7.19212 11.4142 6.85633 11.75 6.44212 11.75C6.02791 11.75 5.69212 11.4142 5.69212 11V7.5C5.69212 7.08579 6.02791 6.75 6.44212 6.75ZM9.55751 6.75C9.97172 6.75 10.3075 7.08579 10.3075 7.5L10.3075 11C10.3075 11.4142 9.97172 11.75 9.5575 11.75C9.14329 11.75 8.80751 11.4142 8.80751 11L8.80751 7.5C8.80751 7.08579 9.14329 6.75 9.55751 6.75Z" fill="#222222"/>
</svg>
