<svg width="12" height="12" viewBox="0 0 12 12" fill="none" xmlns="http://www.w3.org/2000/svg">
    <path fill-rule="evenodd" clip-rule="evenodd" d="M5.754.75c.538-.012 1.113.124 1.583.452l2.783 1.95.001.001c.348.243.622.6.808.957.187.357.324.788.324 1.212v3.28a2.653 2.653 0 0 1-2.648 2.648H3.387A2.654 2.654 0 0 1 .74 8.598V5.26c0-.4.124-.809.292-1.15.168-.343.415-.691.732-.937l2.429-1.893C4.646.926 5.217.763 5.754.751zm-.64 1.713L2.686 4.355c-.09.07-.21.214-.307.414a1.22 1.22 0 0 0-.139.49V8.6c0 .633.518 1.151 1.147 1.151h5.218c.63 0 1.148-.52 1.148-1.147v-3.28c0-.121-.046-.312-.154-.519a1.217 1.217 0 0 0-.336-.42l-.002-.002-2.784-1.951m-.48 4.165a.75.75 0 0 1 .75.75v1.352a.75.75 0 1 1-1.5 0V7.346a.75.75 0 0 1 .75-.75z" fill="#919190"/>
</svg>
