<svg width="25" height="31" viewBox="0 0 25 31" fill="none" xmlns="http://www.w3.org/2000/svg">
    <path fill-rule="evenodd" clip-rule="evenodd" d="M6.073 2.513a3.577 3.577 0 0 0-3.569 3.585v19.504a3.576 3.576 0 0 0 3.569 3.585h13.553a3.576 3.576 0 0 0 3.569-3.585V9.284a.642.642 0 0 0-.187-.453L16.907 2.7a.637.637 0 0 0-.452-.188H6.073zM.85 6.098C.85 3.199 3.188.85 6.073.85h10.382c.608 0 1.191.243 1.621.675l6.102 6.13a2.31 2.31 0 0 1 .672 1.629v16.318c0 2.899-2.34 5.248-5.224 5.248H6.073C3.188 30.85.85 28.5.85 25.602V6.098zm5.86 8.832a2.298 2.298 0 0 1 2.293-2.304h7.693a2.298 2.298 0 0 1 2.292 2.304v7.728a2.298 2.298 0 0 1-2.292 2.304H9.003a2.298 2.298 0 0 1-2.292-2.304V14.93zm1.655 3.04v4.688c0 .353.286.64.638.64h1.37V17.97H8.366zm2.009-1.664H8.365V14.93a.64.64 0 0 1 .638-.64h1.37v2.016zm1.654 1.664v5.329h4.668a.64.64 0 0 0 .638-.64v-4.69h-5.306zm5.306-1.664h-5.306V14.29h4.668a.64.64 0 0 1 .638.641v1.376z" fill="#1D7C4D"/>
</svg>
