<svg width="24" height="24" viewBox="0 0 24 24" fill="none" xmlns="http://www.w3.org/2000/svg">
    <path d="M6.275 9.5a3.381 3.381 0 0 0 3.284 2.533l2.858-.008a4.99 4.99 0 0 1 4.725 3.342M6.167 9.5v5.833M6.167 20.333a2.5 2.5 0 1 0 0-5 2.5 2.5 0 0 0 0 5zM6.375 9.083a2.708 2.708 0 1 0 0-5.416 2.708 2.708 0 0 0 0 5.416z" stroke="#919190" stroke-width="1.7" stroke-linecap="round" stroke-linejoin="round"/>
    <path d="M17.833 20.333a2.5 2.5 0 1 0 0-5 2.5 2.5 0 0 0 0 5z" stroke="#919190" stroke-width="1.7" stroke-linecap="round" stroke-linejoin="round"/>
</svg>
