<svg width="24" height="24" viewBox="0 0 24 24" fill="none" xmlns="http://www.w3.org/2000/svg">
    <path fill-rule="evenodd" clip-rule="evenodd" d="M12.78 5.795a3.58 3.58 0 0 1 3.571 3.572V14.8l2.79 1.557.001.001c.391.215.561.135.585.121.022-.013.174-.121.174-.567v-9.94a1.88 1.88 0 0 0-1.87-1.872h-6.808c-.968 0-1.773.75-1.863 1.695h3.42zm-4.294 1.7H5.973A1.88 1.88 0 0 0 4.1 9.366v9.94c0 .447.153.555.175.568.023.014.194.094.585-.121l.001-.001 3.441-1.917c.34-.186.73-.256 1.073-.256.344 0 .734.07 1.074.256l.005.003 3.435 1.914h.002c.391.216.562.136.585.122.022-.013.174-.121.174-.568V9.367a1.88 1.88 0 0 0-1.87-1.872H8.485zm7.865 9.252v2.56c0 .822-.302 1.615-1.013 2.033-.71.417-1.549.297-2.268-.1l-.004-.001-3.433-1.913-.001-.001a.612.612 0 0 0-.256-.046.612.612 0 0 0-.255.046H9.12L5.686 21.24l-.003.002c-.72.396-1.559.516-2.269.099-.71-.418-1.013-1.211-1.013-2.034v-9.94a3.58 3.58 0 0 1 3.572-3.57h1.683A3.58 3.58 0 0 1 11.223 2.4h6.807a3.58 3.58 0 0 1 3.571 3.572v9.94c0 .822-.302 1.615-1.013 2.033-.71.417-1.549.297-2.268-.099l-.004-.002-1.965-1.097zM6.774 12c0-.47.381-.85.85-.85h3.5a.85.85 0 1 1 0 1.7h-3.5a.85.85 0 0 1-.85-.85z" fill="#919190"/>
</svg>
