<svg width="26" height="26" viewBox="0 0 26 26" fill="none" xmlns="http://www.w3.org/2000/svg">
    <path d="M10.833 19.5a1.083 1.083 0 0 1-1.083-1.083v-7.584a1.083 1.083 0 1 1 2.167 0v7.584c0 .598-.485 1.083-1.084 1.083zM14.083 18.417a1.083 1.083 0 0 0 2.167 0v-7.584a1.083 1.083 0 1 0-2.167 0v7.584z" fill="#919190"/>
    <path fill-rule="evenodd" clip-rule="evenodd" d="m8.832 3.887-.815 1.53H4.333a1.083 1.083 0 1 0 0 2.166h.062l.888 15.23c.033.573.508 1.02 1.082 1.02h13.27c.574 0 1.048-.447 1.082-1.02l.888-15.23h.062a1.083 1.083 0 0 0 0-2.166h-3.684l-.815-1.53a3.25 3.25 0 0 0-2.868-1.72h-2.6a3.25 3.25 0 0 0-2.868 1.72zm2.868.446c-.4 0-.768.22-.956.574l-.272.51h5.056l-.272-.51a1.083 1.083 0 0 0-.956-.574h-2.6zm7.735 3.25H6.565l.822 14.084h11.226l.822-14.084z" fill="#919190"/>
    <path d="M10.833 19.5a1.083 1.083 0 0 1-1.083-1.083v-7.584a1.083 1.083 0 1 1 2.167 0v7.584c0 .598-.485 1.083-1.084 1.083zM14.083 18.417a1.083 1.083 0 0 0 2.167 0v-7.584a1.083 1.083 0 1 0-2.167 0v7.584z" stroke="#919190" stroke-width=".2" stroke-linecap="round"/>
    <path clip-rule="evenodd" d="m8.832 3.887-.815 1.53H4.333a1.083 1.083 0 1 0 0 2.166h.062l.888 15.23c.033.573.508 1.02 1.082 1.02h13.27c.574 0 1.048-.447 1.082-1.02l.888-15.23h.062a1.083 1.083 0 0 0 0-2.166h-3.684l-.815-1.53a3.25 3.25 0 0 0-2.868-1.72h-2.6a3.25 3.25 0 0 0-2.868 1.72zm2.868.446c-.4 0-.768.22-.956.574l-.272.51h5.056l-.272-.51a1.083 1.083 0 0 0-.956-.574h-2.6zm7.735 3.25H6.565l.822 14.084h11.226l.822-14.084z" stroke="#919190" stroke-width=".2" stroke-linecap="round"/>
</svg>
