<svg width="20" height="20" viewBox="0 0 20 20" fill="none" xmlns="http://www.w3.org/2000/svg">
<circle cx="10" cy="10" r="10" fill="#E9E9E9"/>
<path d="M9 8.50258C9.5527 9.05374 10.4474 9.05385 11 8.50258V14C11 14.5523 10.5523 15 10 15C9.44772 15 9 14.5523 9 14V8.50258ZM10.0002 7.24227C9.77254 7.24227 9.56635 7.19287 9.38164 7.09407C9.20123 6.99098 9.05304 6.85567 8.93706 6.68814C8.82537 6.51632 8.76953 6.32732 8.76953 6.12113C8.76953 5.91924 8.82537 5.73239 8.93706 5.56057C9.05304 5.38445 9.20338 5.24699 9.38809 5.1482C9.5728 5.0494 9.77469 5 9.99376 5C10.2128 5 10.4147 5.0494 10.5994 5.1482C10.7841 5.24699 10.9302 5.38445 11.0376 5.56057C11.1493 5.73239 11.2051 5.91924 11.2051 6.12113C11.2051 6.32732 11.1493 6.51632 11.0376 6.68814C10.9302 6.85567 10.7841 6.99098 10.5994 7.09407C10.4147 7.19287 10.215 7.24227 10.0002 7.24227Z" fill="#656464"/>
<path d="M9 8.50258C9.5527 9.05374 10.4474 9.05385 11 8.50258V14C11 14.5523 10.5523 15 10 15C9.44772 15 9 14.5523 9 14V8.50258ZM10.0002 7.24227C9.77254 7.24227 9.56635 7.19287 9.38164 7.09407C9.20123 6.99098 9.05304 6.85567 8.93706 6.68814C8.82537 6.51632 8.76953 6.32732 8.76953 6.12113C8.76953 5.91924 8.82537 5.73239 8.93706 5.56057C9.05304 5.38445 9.20338 5.24699 9.38809 5.1482C9.5728 5.0494 9.77469 5 9.99376 5C10.2128 5 10.4147 5.0494 10.5994 5.1482C10.7841 5.24699 10.9302 5.38445 11.0376 5.56057C11.1493 5.73239 11.2051 5.91924 11.2051 6.12113C11.2051 6.32732 11.1493 6.51632 11.0376 6.68814C10.9302 6.85567 10.7841 6.99098 10.5994 7.09407C10.4147 7.19287 10.215 7.24227 10.0002 7.24227Z" fill="#656464"/>
</svg>
