<svg width="40" height="40" viewBox="0 0 40 40" fill="none" xmlns="http://www.w3.org/2000/svg">
    <rect width="40" height="40" rx="20" fill="#000" fill-opacity=".5"/>
    <path d="M13.47 25.47a.75.75 0 0 0 1.06 1.06l-1.06-1.06zm13.06-10.94a.75.75 0 1 0-1.06-1.06l1.06 1.06zm-1.06 12a.75.75 0 1 0 1.06-1.06l-1.06 1.06zM14.53 13.47a.75.75 0 0 0-1.06 1.06l1.06-1.06zm0 13.06 6-6-1.06-1.06-6 6 1.06 1.06zm6-6 6-6-1.06-1.06-6 6 1.06 1.06zm6 4.94-6-6-1.06 1.06 6 6 1.06-1.06zm-6-6-6-6-1.06 1.06 6 6 1.06-1.06z" fill="#fff"/>
</svg>
