<svg width="20" height="20" viewBox="0 0 20 20" fill="none" xmlns="http://www.w3.org/2000/svg"  >
    <path d="m18.406 8.528-6.933-6.933-.53.53c-.78.78-1.081 1.998-1.21 2.943-.132.98-.737 1.71-1.553 1.89-.861.192-1.883.455-2.816.793-.904.328-1.833.763-2.413 1.344l-.53.53 3.447 3.447-4.054 4.053a.75.75 0 1 0 1.061 1.06l4.053-4.053 3.447 3.447.53-.53c.58-.58 1.015-1.51 1.343-2.414.338-.933.602-1.955.793-2.816.181-.816.91-1.42 1.89-1.553.945-.128 2.164-.428 2.944-1.208l.53-.53z" fill="#222"/>
</svg>
