<svg width="16" height="16" viewBox="0 0 16 16" fill="none" xmlns="http://www.w3.org/2000/svg">
    <path fill-rule="evenodd" clip-rule="evenodd" d="M7.748 1.184a.75.75 0 0 1 .074 1.058l-.32.368a5.953 5.953 0 0 1 6.453 5.936A5.953 5.953 0 0 1 8 14.5a5.953 5.953 0 0 1-5.427-8.406.75.75 0 1 1 1.367.617A4.453 4.453 0 0 0 8 13.001a4.453 4.453 0 0 0 4.455-4.455A4.453 4.453 0 0 0 8 4.09c-.232 0-.455.016-.67.044l.656.479a.75.75 0 1 1-.884 1.211L5.08 4.35a.75.75 0 0 1-.123-1.098L6.69 1.258a.75.75 0 0 1 1.058-.074z" fill="#222"/>
</svg>
