<svg width="24" height="24" viewBox="0 0 24 24" fill="none" xmlns="http://www.w3.org/2000/svg">
<path d="M15.501 9.36624V15.2987L18.7297 17.1012C19.841 17.7137 20.751 17.18 20.751 15.9113V5.97124C20.751 4.47499 19.526 3.25 18.0297 3.25H11.2222C9.72596 3.25 8.50098 4.47499 8.50098 5.97124V6.645H12.7797M15.501 9.36624C15.501 7.86999 14.276 6.645 12.7797 6.645M15.501 9.36624L15.501 19.306C15.501 20.5748 14.591 21.1085 13.4797 20.496L10.041 18.5798C9.67349 18.3785 9.07847 18.3785 8.71097 18.5798L5.27222 20.496C4.16097 21.1085 3.25098 20.5748 3.25098 19.306V9.36601C3.25098 7.86976 4.47596 6.64478 5.97221 6.64478L12.7797 6.645M7.62402 11.9998H11.124" stroke="#919190" stroke-width="1.7" stroke-linecap="round" stroke-linejoin="round"/>
</svg>
