<svg width="24" height="30" viewBox="0 0 24 30" fill="none" xmlns="http://www.w3.org/2000/svg">
    <path fill-rule="evenodd" clip-rule="evenodd" d="M5.223 1.662a3.577 3.577 0 0 0-3.568 3.585v19.506a3.577 3.577 0 0 0 3.568 3.585h13.554a3.577 3.577 0 0 0 3.569-3.585V8.433a.642.642 0 0 0-.187-.453l-6.102-6.13a.637.637 0 0 0-.451-.188H5.223zM0 5.247C0 2.35 2.338 0 5.223 0h10.383c.608 0 1.19.243 1.62.675l6.102 6.13c.43.432.672 1.017.672 1.628v16.32C24 27.65 21.662 30 18.777 30H5.223C2.338 30 0 27.65 0 24.753V5.247zm4.396 10.305a.83.83 0 0 1 .827-.831h1.649a2.481 2.481 0 0 1 2.475 2.487 2.481 2.481 0 0 1-2.475 2.487H6.05v.641a.83.83 0 0 1-.827.831.83.83 0 0 1-.827-.83v-4.785zm1.654 2.481h.822c.453 0 .82-.37.82-.825a.823.823 0 0 0-.82-.825H6.05v1.65zm3.474-2.481a.83.83 0 0 1 .828-.831H12a3.216 3.216 0 0 1 3.208 3.223A3.216 3.216 0 0 1 12 21.167h-1.648a.83.83 0 0 1-.828-.83v-4.785zm1.655.831v3.122H12c.858 0 1.554-.699 1.554-1.56 0-.863-.696-1.562-1.554-1.562h-.821zm4.206-.831a.83.83 0 0 1 .828-.831h2.564a.83.83 0 0 1 .827.831.83.83 0 0 1-.827.831H17.04v.914h1.737a.83.83 0 0 1 .827.831.83.83 0 0 1-.827.831H17.04v1.377a.83.83 0 0 1-.827.831.83.83 0 0 1-.828-.83v-4.785z" fill="#C53434"/>
</svg>
