<svg width="28" height="28" viewBox="0 0 28 28" fill="none" xmlns="http://www.w3.org/2000/svg">
    <circle cx="14" cy="14" r="14" fill="#FFD873"/>
    <path fill-rule="evenodd" clip-rule="evenodd" d="M14 8.25c-1.585 0-2.85 1.262-2.85 2.796 0 1.533 1.265 2.795 2.85 2.795 1.585 0 2.85-1.262 2.85-2.795 0-1.534-1.265-2.796-2.85-2.796zm2.715 6.152a4.264 4.264 0 0 0 1.635-3.356c0-2.384-1.958-4.296-4.35-4.296-2.392 0-4.35 1.912-4.35 4.296 0 1.362.64 2.57 1.635 3.356-2.372 1.03-4.035 3.367-4.035 6.098h1.5c0-2.838 2.34-5.16 5.25-5.16s5.25 2.322 5.25 5.16h1.5c0-2.731-1.663-5.069-4.035-6.098z" fill="#fff"/>
</svg>
