<svg width="26" height="26" viewBox="0 0 26 26" fill="none" xmlns="http://www.w3.org/2000/svg">
    <path d="M17.115 2.294c.17 0 .341.009.516.025 1.255.12 2.46.677 3.31 1.526.85.85 1.38 2.05 1.453 3.291.078 1.332-.357 2.548-1.226 3.424l-7.816 7.842a3.023 3.023 0 0 1-4.281.007 3.028 3.028 0 0 1-.891-2.147 3.023 3.023 0 0 1 .882-2.15l5.472-5.406a1.118 1.118 0 0 1 1.586.012c.435.444.43 1.156-.012 1.592l-5.464 5.397a.777.777 0 0 0-.221.55.784.784 0 0 0 .786.786c.21 0 .408-.081.556-.23L19.58 8.97c.861-.87.756-2.551-.223-3.53-.481-.48-1.207-.809-1.942-.88-.414-.038-1.192-.027-1.72.504l-8.789 8.753c-.75.756-1.128 1.847-1.058 3.065.07 1.21.579 2.372 1.396 3.189 1.72 1.718 4.695 1.865 6.242.306L19.814 14a1.118 1.118 0 0 1 1.587-.004c.439.439.44 1.151.003 1.592l-6.328 6.376c-2.417 2.438-6.816 2.296-9.414-.299-1.203-1.202-1.95-2.899-2.052-4.654-.108-1.867.5-3.567 1.712-4.788l8.79-8.753c.76-.767 1.813-1.177 3.003-1.177z" fill="#919190"/>
</svg>
