<svg width="8" height="9" viewBox="0 0 8 9" fill="none" xmlns="http://www.w3.org/2000/svg">
<path fill-rule="evenodd" clip-rule="evenodd" d="M7.78031 0.71967C8.0732 1.01256 8.0732 1.48744 7.78031 1.78033L5.06065 4.49999L7.78033 7.21967C8.07322 7.51256 8.07322 7.98744 7.78033 8.28033C7.48744 8.57322 7.01256 8.57322 6.71967 8.28033L3.99999 5.56065L1.28033 8.28031C0.987437 8.5732 0.512563 8.5732 0.21967 8.28031C-0.0732233 7.98741 -0.0732233 7.51254 0.21967 7.21965L2.93933 4.49999L0.219695 1.78036C-0.0731982 1.48746 -0.0731982 1.01259 0.219695 0.719695C0.512588 0.426802 0.987462 0.426802 1.28036 0.719695L3.99999 3.43933L6.71965 0.71967C7.01254 0.426777 7.48741 0.426777 7.78031 0.71967Z" fill="#D51900"/>
</svg>
