<svg width="20" height="20" viewBox="0 0 20 20" fill="none" xmlns="http://www.w3.org/2000/svg">
    <path d="M4.167 8.333h1.667c1.666 0 2.5-.833 2.5-2.5V4.166c0-1.666-.834-2.5-2.5-2.5H4.167c-1.667 0-2.5.834-2.5 2.5v1.667c0 1.667.833 2.5 2.5 2.5zM14.167 8.333h1.667c1.666 0 2.5-.833 2.5-2.5V4.166c0-1.666-.834-2.5-2.5-2.5h-1.667c-1.667 0-2.5.834-2.5 2.5v1.667c0 1.667.833 2.5 2.5 2.5zM14.167 18.333h1.667c1.666 0 2.5-.833 2.5-2.5v-1.667c0-1.666-.834-2.5-2.5-2.5h-1.667c-1.667 0-2.5.834-2.5 2.5v1.667c0 1.667.833 2.5 2.5 2.5zM4.167 18.333h1.667c1.666 0 2.5-.833 2.5-2.5v-1.667c0-1.666-.834-2.5-2.5-2.5H4.167c-1.667 0-2.5.834-2.5 2.5v1.667c0 1.667.833 2.5 2.5 2.5z" stroke="#919190" stroke-width="1.7" stroke-miterlimit="10" stroke-linecap="round" stroke-linejoin="round"/>
</svg>
