<svg width="8" height="8" viewBox="0 0 8 8" fill="none" xmlns="http://www.w3.org/2000/svg">
<path fill-rule="evenodd" clip-rule="evenodd" d="M7.78031 0.21967C8.0732 0.512563 8.0732 0.987437 7.78031 1.28033L5.06065 3.99999L7.78033 6.71967C8.07322 7.01256 8.07322 7.48744 7.78033 7.78033C7.48744 8.07322 7.01256 8.07322 6.71967 7.78033L3.99999 5.06065L1.28033 7.78031C0.987437 8.0732 0.512563 8.0732 0.21967 7.78031C-0.0732233 7.48741 -0.0732233 7.01254 0.21967 6.71965L2.93933 3.99999L0.219695 1.28036C-0.0731982 0.987462 -0.0731982 0.512588 0.219695 0.219695C0.512588 -0.0731982 0.987462 -0.0731982 1.28036 0.219695L3.99999 2.93933L6.71965 0.21967C7.01254 -0.0732233 7.48741 -0.0732233 7.78031 0.21967Z" fill="#222222"/>
</svg>
