<svg width="16" height="16" viewBox="0 0 16 16" fill="none" xmlns="http://www.w3.org/2000/svg">
    <path fill-rule="evenodd" clip-rule="evenodd" d="M12.25 4.036a.75.75 0 0 0-1.111-.657l-4.96 2.726a.25.25 0 0 0-.129.219v3.633c0 .094.053.18.136.223l4.973 2.538a.75.75 0 0 0 1.091-.668V4.036zm-1.834-1.972c1.5-.824 3.334.261 3.334 1.972v8.014c0 1.681-1.776 2.768-3.273 2.004l-4.973-2.538a1.75 1.75 0 0 1-.954-1.559V6.324c0-.638.348-1.226.907-1.534l4.96-2.726zM2 5.75a.75.75 0 0 1 .75.75V10a.75.75 0 1 1-1.5 0V6.5A.75.75 0 0 1 2 5.75z" fill="#222"/>
</svg>
