<svg width="16" height="17" viewBox="0 0 16 17" fill="none" xmlns="http://www.w3.org/2000/svg">
<path fill-rule="evenodd" clip-rule="evenodd" d="M8 1.75C8.41421 1.75 8.75 2.08579 8.75 2.5V7.74995H14C14.4142 7.74995 14.75 8.08574 14.75 8.49995C14.75 8.91417 14.4142 9.24995 14 9.24995H8.75L8.75 14.5C8.75 14.9142 8.41421 15.25 8 15.25C7.58579 15.25 7.25 14.9142 7.25 14.5L7.25 9.24995H2C1.58579 9.24995 1.25 8.91417 1.25 8.49995C1.25 8.08574 1.58579 7.74995 2 7.74995H7.25V2.5C7.25 2.08579 7.58579 1.75 8 1.75Z" fill="#222222"/>
</svg>
