<svg width="12" height="13" viewBox="0 0 12 13" fill="none" xmlns="http://www.w3.org/2000/svg">
<path fill-rule="evenodd" clip-rule="evenodd" d="M1.75 1.25C2.16421 1.25 2.5 1.58579 2.5 2V5.72142L8.43934 5.72142L6.24825 3.53033C5.95536 3.23744 5.95536 2.76256 6.24825 2.46967C6.54115 2.17678 7.01602 2.17678 7.30891 2.46967L10.7803 5.94109C11.0732 6.23398 11.0732 6.70886 10.7803 7.00175L7.30891 10.4732C7.01602 10.7661 6.54115 10.7661 6.24825 10.4732C5.95536 10.1803 5.95536 9.7054 6.24825 9.4125L8.43934 7.22142L2.5 7.22142V11C2.5 11.4142 2.16421 11.75 1.75 11.75C1.33579 11.75 1 11.4142 1 11V2C1 1.58579 1.33579 1.25 1.75 1.25Z" fill="#393837"/>
</svg>
