<svg width="64" height="64" viewBox="0 0 64 64" fill="none" xmlns="http://www.w3.org/2000/svg">
    <path d="M63.5 32c0 17.397-14.103 31.5-31.5 31.5S.5 49.397.5 32 14.603.5 32 .5 63.5 14.603 63.5 32z" fill="#FEFEFF" stroke="#D7D9F3"/>
    <mask id="gmugbaifxa" style="mask-type:alpha" maskUnits="userSpaceOnUse" x="0" y="0" width="64" height="64">
        <path d="M63.5 32c0 17.397-14.103 31.5-31.5 31.5S.5 49.397.5 32 14.603.5 32 .5 63.5 14.603 63.5 32z" fill="#fff" stroke="#D7D9F3"/>
    </mask>
    <g mask="url(#gmugbaifxa)">
        <path d="M37.286 50.334c-.395-1.466-.029-5.333-.077-6.35-1.58.828-3.56.939-5.707 1.03-1.519.064-3.92.188-5.336-.403-.027.912.37 4.588.025 5.723l-3.359 1.217c3.833 3.153 5.616 5.675 8.922 9.3 2.005-2.395 4.471-3.821 6.377-6.387.9-1.182 1.8-1.738 2.634-2.895l-3.479-1.235z" fill="#F8C5B3"/>
        <path d="M37.157 45.903c-1.32 1.108-3.3 2.292-5.918 2.292a8.33 8.33 0 0 1-3.852-.952 11.741 11.741 0 0 1-1.131-.668c.078 1.39.148 3.059-.065 3.76l-3.359 1.217c3.833 3.152 5.616 5.675 8.922 9.3 2.005-2.395 4.471-3.821 6.377-6.387.9-1.182 1.8-1.738 2.634-2.895l-3.479-1.236c-.255-.947-.193-2.895-.13-4.43z" fill="#FFD8CA"/>
        <path d="M44.345 28.29c-.1-2.077.249-5.849.012-7.447-.717-4.855-3.265-5.5-11.44-5.29-9.772.252-14.75 1.741-15.067 10.066.013.406.035.824.067 1.258a44.19 44.19 0 0 0 .706 5.266c.845 4.294 2.256 7.949 3.807 9.793 1.075 1.278 2.543 2.706 4.205 3.726.246.152.498.295.753.427a8.33 8.33 0 0 0 3.852.951c4.426 0 7.029-3.385 7.697-4.06 1.76-1.779 5.158-7.085 5.42-14.388l-.012-.303z" fill="#FFD8CB"/>
        <path d="M41.91 33.924c-.48 1.334-.158 2.67.717 2.985.877.316 1.977-.509 2.457-1.842.48-1.333.159-2.67-.717-2.985-.876-.316-1.976.509-2.456 1.842zM17.666 35.067c-.48-1.333-.159-2.67.717-2.985.877-.316 1.977.509 2.457 1.842.48 1.334.159 2.67-.717 2.985-.877.316-1.976-.509-2.457-1.842z" fill="#FFD8CA"/>
        <path d="M24.188 32.434c.633 0 1.146-.746 1.146-1.665 0-.92-.513-1.664-1.146-1.664-.634 0-1.147.745-1.147 1.664 0 .92.513 1.665 1.147 1.665zM38.506 32.434c.633 0 1.147-.746 1.147-1.665 0-.92-.514-1.664-1.147-1.664s-1.147.745-1.147 1.664c0 .92.514 1.665 1.147 1.665z" fill="#2D2928"/>
        <path d="M47.136 17.81c-.085-1.613-.797-3.45-2.778-3.83-.862-2.464-3.365-6.696-13.908-5.876-3.81.296-9.815 1.599-11.94 5.99-1.797 3.715-1.762 11.906-.416 17.988.08.36.446.219.692 0 .467-5.72.16-11.234 3.514-13.212 2.453-1.446 18.158-2.467 20.22-.563 1.252 3.905 1.754 10.841 1.333 13.775.259.01.514.214.685-.15 1.668-3.552 2.888-8.62 2.597-14.122z" fill="#2D2928"/>
        <path d="M29.27 37.885c1.92.577 4.486-.175 4.943-.226 1.291.133.358 1.767-.19 2.297-.542.546-1.236.87-2.006.955-3.3.363-4.61-2.704-3.44-3.065.175-.054.406-.048.694.039z" fill="#fff"/>
        <path d="m25.893 26.934-.033-.014a4.392 4.392 0 0 0-.55-.177 5.396 5.396 0 0 0-1.374-.185 3.826 3.826 0 0 0-.72.07 2.98 2.98 0 0 0-.318.082c-.05.014-.096.033-.142.05a1.34 1.34 0 0 0-.13.052c-.085.034-.156.075-.222.107l-.162.097-.137.094-.026.018a.402.402 0 0 1-.486-.639l.167-.14.202-.147c.081-.05.172-.112.277-.167.052-.03.107-.059.165-.085.058-.027.117-.057.18-.081a4.197 4.197 0 0 1 .839-.25c.15-.03.304-.05.457-.066a6.785 6.785 0 0 1 2.365.227c.04.012.061.02.061.02a.604.604 0 1 1-.41 1.135l-.002-.001zM36.722 26.934l.034-.014.113-.043c.102-.036.252-.085.436-.134.368-.098.875-.19 1.375-.185a3.826 3.826 0 0 1 .72.07c.112.023.218.05.317.082.05.014.097.033.142.05.047.015.09.034.13.052.085.034.156.075.222.107l.163.097.136.094.027.018a.402.402 0 0 0 .486-.639l-.167-.14a8.123 8.123 0 0 0-.202-.147c-.082-.05-.173-.112-.278-.167a2.001 2.001 0 0 0-.165-.085c-.058-.027-.117-.057-.18-.081a4.197 4.197 0 0 0-.839-.25c-.15-.03-.304-.05-.457-.066a6.785 6.785 0 0 0-2.365.227c-.04.012-.061.02-.061.02a.604.604 0 1 0 .41 1.135l.003-.001z" fill="#2D2928"/>
        <path d="M30.555 35.763c-.343 0-.708-.062-.978-.266-.18-.137-.395-.4-.391-.877.003-.508.276-.93.54-1.338l.122-.19c.139-.221.322-.843.38-1.065a.227.227 0 0 1 .44.117c-.024.089-.235.87-.435 1.19l-.125.196c-.239.37-.465.719-.468 1.094-.001.235.068.402.212.51.396.3 1.266.138 1.568.05a.227.227 0 1 1 .127.436 3.856 3.856 0 0 1-.992.143z" fill="#F0BAA7"/>
        <path fill-rule="evenodd" clip-rule="evenodd" d="m61.558 67-8.587-9.195a6.1 6.1 0 0 0-3.148-3.285c-1.017-.46-7.895-2.868-12.807-4.288-.074-.021-.235.166-.486.458-.748.87-2.299 2.674-4.726 2.643-2.157-.027-3.729-1.323-4.767-2.18-.571-.47-.981-.809-1.24-.731-4.79 1.434-11.04 3.658-12.012 4.098a6.099 6.099 0 0 0-3.149 3.285L2.05 67h59.51z" fill="#4E47D6"/>
        <path d="M30.01 57.705h3.503l1.604-4.98h-6.71l1.604 4.98z" fill="#FF5343"/>
        <path d="m37.103 48.616-4.726 4.11 4.028 4.979 2.203-7-1.505-2.089zM26.331 48.616l4.726 4.11-4.028 4.979-2.203-7 1.505-2.089z" fill="#fff"/>
        <path d="M35.553 67.17h-7.582l2.04-9.465h3.502l2.04 9.465z" fill="#FF5343"/>
    </g>
</svg>
