<svg width="34" height="34" viewBox="0 0 34 34" fill="none" xmlns="http://www.w3.org/2000/svg">
    <circle cx="17" cy="17" r="17" fill="#4E47D6"/>
    <path d="M26.483 18.055H25.03v-3.466c0-4.476-3.602-8.118-8.03-8.118-4.427 0-8.029 3.642-8.029 8.118v3.466H7.516v-3.466a9.58 9.58 0 0 1 2.778-6.78A9.37 9.37 0 0 1 17 5a9.37 9.37 0 0 1 6.706 2.809 9.58 9.58 0 0 1 2.778 6.78v3.466z" fill="#fff" stroke="#fff" stroke-width=".5"/>
    <path d="M17 27.316v-.817c4.606 0 8.353-3.789 8.353-8.445h.808c0 2.474-.953 4.8-2.684 6.55A9.05 9.05 0 0 1 17 27.315z" fill="#fff" stroke="#fff"/>
    <rect x="6" y="13.938" width="4.125" height="6.187" rx="2" fill="#fff"/>
    <rect x="23.875" y="13.938" width="4.125" height="6.187" rx="2" fill="#fff"/>
    <rect x="19.75" y="24.936" width="3.437" height="4.812" rx="1.719" transform="rotate(90 19.75 24.936)" fill="#fff"/>
</svg>
