<svg width="64" height="64" viewBox="0 0 64 64" fill="none" xmlns="http://www.w3.org/2000/svg">
    <path d="M64 32c0 17.673-14.327 32-32 32C14.327 64 0 49.673 0 32 0 14.327 14.327 0 32 0c17.673 0 32 14.327 32 32z" fill="#4E47D6"/>
    <path d="M37.75 25.305h-11.5a8.568 8.568 0 0 0-6.099 2.544 8.689 8.689 0 0 0-2.526 6.141c0 4.797 3.861 8.685 8.625 8.685h11.5a8.568 8.568 0 0 0 6.099-2.544 8.689 8.689 0 0 0 2.526-6.141c0-4.797-3.861-8.685-8.625-8.685zM25.531 33.99a1.443 1.443 0 0 1-1.437-1.448c0-.799.643-1.447 1.437-1.447s1.438.648 1.438 1.447c0 .8-.644 1.448-1.438 1.448zM32 38.687c-1.985 0-3.594-1.296-3.594-2.895h7.188c0 1.599-1.61 2.895-3.594 2.895zm6.469-4.697a1.443 1.443 0 0 1-1.438-1.448c0-.799.644-1.447 1.438-1.447.794 0 1.437.648 1.437 1.447 0 .8-.643 1.448-1.437 1.448z" fill="#fff"/>
    <path d="M32 48.465h-4.313c-1.94 0-3.823-.383-5.595-1.138a14.316 14.316 0 0 1-4.57-3.102 14.472 14.472 0 0 1-4.21-10.236 14.473 14.473 0 0 1 4.21-10.235 14.32 14.32 0 0 1 4.57-3.102 14.2 14.2 0 0 1 5.595-1.137h8.625a14.2 14.2 0 0 1 5.596 1.137 14.32 14.32 0 0 1 4.569 3.102 14.473 14.473 0 0 1 4.21 10.236h-1.438c0-7.184-5.803-13.028-12.937-13.028h-8.625c-7.134 0-12.938 5.844-12.938 13.028 0 7.183 5.804 13.028 12.938 13.028h4.312v1.447z" fill="#fff"/>
    <path d="M14.75 39.779c-3.176 0-5.75-2.593-5.75-5.79 0-3.198 2.574-5.79 5.75-5.79v11.58zM49.25 39.779c3.176 0 5.75-2.593 5.75-5.79 0-3.198-2.574-5.79-5.75-5.79v11.58zM32 28.924c1.985 0 3.594-1.296 3.594-2.895s-1.61-2.895-3.594-2.895c-1.985 0-3.594 1.296-3.594 2.895s1.61 2.895 3.594 2.895zM32 17.343c1.19 0 2.156-.973 2.156-2.172C34.156 13.972 33.191 13 32 13c-1.19 0-2.156.972-2.156 2.171 0 1.2.965 2.172 2.156 2.172zM32.719 50.637c1.984 0 3.593-1.296 3.593-2.895 0-1.6-1.608-2.895-3.593-2.895-1.985 0-3.594 1.296-3.594 2.895s1.609 2.895 3.594 2.895z" fill="#fff"/>
    <path d="M32.719 15.17H31.28v13.06h1.438V15.17z" fill="#fff"/>
</svg>
