<svg width="50" height="50" viewBox="0 0 50 50" fill="none" xmlns="http://www.w3.org/2000/svg">
    <circle cx="25" cy="25" r="24.5" fill="#fff" stroke="#D7D9F3"/>
    <path d="M39.036 26.78h-2.204v-5.25c0-6.783-5.457-12.302-12.166-12.302-6.708 0-12.165 5.519-12.165 12.302v5.25h-2.204v-5.25c0-3.881 1.495-7.53 4.209-10.274C17.22 8.512 20.828 7 24.666 7c3.84 0 7.448 1.512 10.162 4.256 2.714 2.744 4.209 6.393 4.209 10.274v5.25h-.001z" fill="#4E47D6" stroke="#4E47D6" stroke-width=".5"/>
    <path d="M24.667 40.813v-1.238c6.978 0 12.655-5.74 12.655-12.796h1.224c0 3.749-1.444 7.274-4.066 9.924-2.621 2.65-6.107 4.11-9.814 4.11z" fill="#4E47D6" stroke="#4E47D6"/>
    <rect x="8" y="20.542" width="6.25" height="9.375" rx="2" fill="#4E47D6"/>
    <rect x="35.084" y="20.542" width="6.25" height="9.375" rx="2" fill="#4E47D6"/>
    <rect x="28.834" y="37.208" width="5.208" height="7.292" rx="2" transform="rotate(90 28.834 37.208)" fill="#4E47D6"/>
</svg>
