<svg width="34" height="34" viewBox="0 0 34 34" fill="none" xmlns="http://www.w3.org/2000/svg">
    <circle cx="17" cy="17" r="16.5" fill="#fff" stroke="#D7D9F3"/>
    <path d="M20.25 12.955h-6.5c-1.346 0-2.565.55-3.447 1.438a4.91 4.91 0 0 0-1.428 3.471c0 2.712 2.182 4.91 4.875 4.91h6.5c1.346 0 2.565-.55 3.447-1.439a4.911 4.911 0 0 0 1.428-3.47c0-2.712-2.183-4.91-4.875-4.91zm-6.906 4.91a.816.816 0 0 1-.813-.819c0-.452.364-.818.813-.818.448 0 .812.366.812.818a.815.815 0 0 1-.812.818zM17 20.518c-1.122 0-2.031-.733-2.031-1.636h4.062c0 .903-.91 1.636-2.031 1.636zm3.656-2.655a.815.815 0 0 1-.812-.818c0-.452.364-.818.812-.818.449 0 .813.366.813.818a.816.816 0 0 1-.813.818z" fill="#4E47D6"/>
    <path d="M17 26.046h-2.438a8.025 8.025 0 0 1-3.162-.643 8.092 8.092 0 0 1-2.583-1.753 8.18 8.18 0 0 1-2.38-5.785 8.18 8.18 0 0 1 2.38-5.786 8.094 8.094 0 0 1 2.583-1.753 8.026 8.026 0 0 1 3.162-.643h4.875c1.097 0 2.161.216 3.163.643a8.093 8.093 0 0 1 2.582 1.753 8.178 8.178 0 0 1 2.38 5.785h-.812c0-4.06-3.28-7.363-7.313-7.363h-4.875c-4.032 0-7.312 3.303-7.312 7.363 0 4.06 3.28 7.364 7.312 7.364H17v.818z" fill="#4E47D6"/>
    <path d="M7.25 21.135C5.455 21.135 4 19.67 4 17.863c0-1.808 1.455-3.273 3.25-3.273v6.545zM26.75 21.135c1.795 0 3.25-1.465 3.25-3.272 0-1.808-1.455-3.273-3.25-3.273v6.545zM17 15c1.122 0 2.031-.732 2.031-1.636 0-.904-.91-1.637-2.031-1.637-1.122 0-2.031.733-2.031 1.637S15.879 15 17 15zM17 8.455c.673 0 1.219-.55 1.219-1.228C18.219 6.55 17.673 6 17 6s-1.219.55-1.219 1.227c0 .678.546 1.228 1.219 1.228zM17.406 27.273c1.122 0 2.032-.733 2.032-1.637 0-.903-.91-1.636-2.032-1.636-1.122 0-2.031.733-2.031 1.636 0 .904.91 1.637 2.031 1.637z" fill="#4E47D6"/>
    <path d="M17.406 7.227h-.812v7.38h.812v-7.38z" fill="#4E47D6"/>
</svg>
