<svg width="64" height="64" viewBox="0 0 64 64" fill="none" xmlns="http://www.w3.org/2000/svg">
    <path d="M63.5 32c0 17.397-14.103 31.5-31.5 31.5S.5 49.397.5 32 14.603.5 32 .5 63.5 14.603 63.5 32z" fill="#fff" stroke="#D7D9F3"/>
    <path d="M49.003 19.962a5.493 5.493 0 0 0-4.174-3.043 89.955 89.955 0 0 0-25.658 0 5.499 5.499 0 0 0-4.057 2.818 12.97 12.97 0 0 0-.52 1.844 66.58 66.58 0 0 0-.026 17.548 5.417 5.417 0 0 0 4.597 4.632c4.027.578 8.089.884 12.158.914a1.075 1.075 0 0 1 1.072 1.072V50l7.962-5.57c.153-.106.33-.171.516-.19 1.327-.13 2.66-.292 3.962-.48a5.417 5.417 0 0 0 4.597-4.631 66.569 66.569 0 0 0-.026-17.548 9.94 9.94 0 0 0-.403-1.619z" fill="#4E47D6"/>
    <path d="M36.512 30.508a1.052 1.052 0 0 1 1.024 1.286c-.716 3.088-3.819 5.013-6.929 4.302a5.757 5.757 0 0 1-4.333-4.302 1.047 1.047 0 0 1 1.024-1.286h9.214zM22.862 28.767A1.563 1.563 0 0 0 21.7 26.88a1.576 1.576 0 0 0-1.9 1.153 1.563 1.563 0 0 0 1.161 1.887 1.576 1.576 0 0 0 1.901-1.153zM43.768 28.58c.1-.859-.52-1.635-1.384-1.734a1.573 1.573 0 0 0-1.746 1.374c-.1.858.52 1.634 1.384 1.733.865.1 1.646-.516 1.746-1.374z" fill="#fff"/>
</svg>
