<svg width="22" height="22" viewBox="0 0 22 22" fill="none" xmlns="http://www.w3.org/2000/svg">
    <path fill-rule="evenodd" clip-rule="evenodd" d="M11 1.703c.794 0 1.498.512 1.744 1.267l1.44 4.434h4.662a1.833 1.833 0 0 1 1.078 3.316l-3.772 2.74 1.44 4.434a1.833 1.833 0 0 1-2.82 2.05L11 17.204l-3.772 2.74a1.833 1.833 0 0 1-2.82-2.05l1.44-4.433-3.772-2.74a1.833 1.833 0 0 1 1.078-3.317h4.662l1.44-4.434A1.833 1.833 0 0 1 11 1.703zM9.148 9.237H3.154l4.849 3.523-1.852 5.7L11 14.939l4.85 3.523-1.853-5.7 4.85-3.524h-5.995L11 3.537l-1.852 5.7z" fill="#D7D9F3"/>
</svg>
