<svg width="55" height="54" viewBox="0 0 55 54" fill="none" xmlns="http://www.w3.org/2000/svg">
    <rect x=".666" width="54" height="54" rx="27" fill="#4E47D6"/>
    <path clip-rule="evenodd" d="m20.666 18.6 1.331-1.997A3.6 3.6 0 0 1 24.993 15h5.746a3.6 3.6 0 0 1 2.996 1.603l1.331 1.997h7a2 2 0 0 1 2 2v15.8a2 2 0 0 1-2 2h-28.4a2 2 0 0 1-2-2V20.6a2 2 0 0 1 2-2h7z" stroke="#fff" stroke-width="2" stroke-linecap="round" stroke-linejoin="round"/>
    <path clip-rule="evenodd" d="M27.56 32.93c3.254 0 5.893-2.59 5.893-5.785 0-3.195-2.639-5.785-5.894-5.785-3.254 0-5.893 2.59-5.893 5.785 0 3.195 2.639 5.785 5.893 5.785z" stroke="#fff" stroke-width="2"/>
</svg>
