<svg width="64" height="64" viewBox="0 0 64 64" fill="none" xmlns="http://www.w3.org/2000/svg">
    <path d="M64 32c0 17.673-14.327 32-32 32C14.327 64 0 49.673 0 32 0 14.327 14.327 0 32 0c17.673 0 32 14.327 32 32z" fill="#4E47D6"/>
    <path fill-rule="evenodd" clip-rule="evenodd" d="M28 18.667A9.333 9.333 0 0 1 37.333 28 9.333 9.333 0 0 1 28 37.333a9.316 9.316 0 0 1-3.183-.556 2.41 2.41 0 0 0-1.398-.078 21.972 21.972 0 0 1-3.884.592 8.543 8.543 0 0 0 .49-4.09 2.311 2.311 0 0 0-.26-.803A9.286 9.286 0 0 1 18.667 28 9.333 9.333 0 0 1 28 18.667zM40 28c0-6.627-5.373-12-12-12s-12 5.373-12 12c0 2.022.501 3.931 1.387 5.606a5.876 5.876 0 0 1-.737 3.57l-.055.095C15.9 38.487 16.778 40 18.18 40c1.957 0 3.903-.233 5.797-.692 1.26.449 2.615.692 4.024.692 6.627 0 12-5.373 12-12zm3.14-.99a1.333 1.333 0 0 0-.16 1.88 9.954 9.954 0 0 1 2.353 6.443 9.95 9.95 0 0 1-1.182 4.721 2.31 2.31 0 0 0-.26.803 8.994 8.994 0 0 0 .561 4.44 23.43 23.43 0 0 1-4.29-.644 2.406 2.406 0 0 0-1.4.078 9.98 9.98 0 0 1-3.429.602 9.954 9.954 0 0 1-6.443-2.352 1.333 1.333 0 1 0-1.72 2.038A12.621 12.621 0 0 0 35.333 48c1.497 0 2.935-.26 4.271-.739 2.014.49 4.083.739 6.164.739 1.424 0 2.317-1.538 1.61-2.775l-.057-.101a6.327 6.327 0 0 1-.793-3.86c.94-1.77 1.472-3.79 1.472-5.93 0-3.11-1.122-5.96-2.98-8.164a1.333 1.333 0 0 0-1.88-.16zm-20.473 2.323a1.333 1.333 0 1 0 0-2.666 1.333 1.333 0 0 0 0 2.666zM29.333 28a1.333 1.333 0 1 1-2.666 0 1.333 1.333 0 0 1 2.666 0zm4 1.333a1.333 1.333 0 1 0 0-2.666 1.333 1.333 0 0 0 0 2.666z" fill="#fff"/>
</svg>
