<svg width="33" height="32" viewBox="0 0 33 32" fill="none" xmlns="http://www.w3.org/2000/svg">
    <path fill-rule="evenodd" clip-rule="evenodd" d="M12.469 2.667a9.333 9.333 0 0 1 0 18.666 9.315 9.315 0 0 1-3.184-.556 2.41 2.41 0 0 0-1.397-.078 21.971 21.971 0 0 1-3.885.592 8.543 8.543 0 0 0 .49-4.09 2.31 2.31 0 0 0-.259-.803A9.286 9.286 0 0 1 3.135 12a9.333 9.333 0 0 1 9.334-9.333zm12 9.333c0-6.627-5.373-12-12-12-6.628 0-12 5.373-12 12 0 2.022.501 3.931 1.387 5.606a5.876 5.876 0 0 1-.737 3.57l-.055.095C.369 22.487 1.247 24 2.647 24c1.958 0 3.904-.233 5.798-.692 1.26.448 2.614.692 4.024.692 6.627 0 12-5.373 12-12zm3.14-.99a1.333 1.333 0 0 0-.16 1.88 9.954 9.954 0 0 1 2.353 6.443 9.95 9.95 0 0 1-1.182 4.721c-.12.226-.221.496-.26.803a8.992 8.992 0 0 0 .561 4.44 23.431 23.431 0 0 1-4.29-.645 2.406 2.406 0 0 0-1.401.079 9.98 9.98 0 0 1-3.428.602 9.955 9.955 0 0 1-6.444-2.352 1.333 1.333 0 1 0-1.719 2.038A12.622 12.622 0 0 0 19.802 32c1.497 0 2.935-.26 4.271-.738 2.014.489 4.083.738 6.164.738 1.424 0 2.317-1.538 1.61-2.775l-.058-.101a6.327 6.327 0 0 1-.792-3.86c.94-1.77 1.472-3.79 1.472-5.93a12.62 12.62 0 0 0-2.981-8.164 1.333 1.333 0 0 0-1.879-.16zM7.135 13.334a1.333 1.333 0 1 0 0-2.666 1.333 1.333 0 0 0 0 2.666zM13.802 12a1.333 1.333 0 1 1-2.667 0 1.333 1.333 0 0 1 2.667 0zm4 1.333a1.333 1.333 0 1 0 0-2.666 1.333 1.333 0 0 0 0 2.666z" fill="#fff"/>
</svg>
